<?xml version="1.0" encoding="UTF-8" standalone="no"?>
<svg width="143px" height="299px" viewBox="0 0 143 299" version="1.1" xmlns="http://www.w3.org/2000/svg" xmlns:xlink="http://www.w3.org/1999/xlink" xmlns:sketch="http://www.bohemiancoding.com/sketch/ns">
    <!-- Generator: Sketch 3.5 (25232) - http://www.bohemiancoding.com/sketch -->
    <title>Dasmen Logo</title>
    <desc>Created with Sketch.</desc>
    <defs></defs>
    <g id="Page-1" stroke="none" stroke-width="1" fill="none" fill-rule="evenodd" sketch:type="MSPage">
        <g id="Dasmen-Logo" sketch:type="MSLayerGroup" transform="translate(-1.000000, 0.000000)">
            <path d="M125.949468,0.446958763 C124.689617,-0.218501664 123.165154,-0.135527839 121.985106,0.662731959 L73.9037234,33.1982474 L25.7914894,0.662731959 C25.5269904,0.48951558 25.2420147,0.349737777 24.9430851,0.246597938 L24.6962766,0.246597938 C24.4647097,0.177900727 24.2271066,0.13145283 23.9867021,0.107886598 L23.7553191,0.107886598 C23.4530138,0.0719942427 23.1475181,0.0719942427 22.8452128,0.107886598 L22.6755319,0.107886598 C22.4257124,0.17080712 22.1828323,0.258582418 21.9505319,0.369896907 L21.8271277,0.369896907 L21.7345745,0.369896907 C21.4854693,0.507856386 21.2526318,0.673288481 21.0404255,0.863092784 L21.0404255,0.863092784 C20.8444327,1.04963085 20.668641,1.25626813 20.5159574,1.47958763 L20.5159574,1.58747423 L20.3925532,1.81865979 C20.2802595,2.02543575 20.1873118,2.24212851 20.1148936,2.46597938 L20.1148936,2.71257732 C20.0362735,3.01466357 19.9948326,3.32520499 19.9914894,3.63731959 L19.9914894,3.63731959 L19.9914894,133.332423 C19.9953326,134.732854 20.7593663,136.020938 21.9870252,136.696696 C23.2146841,137.372453 24.7126468,137.329471 25.8994681,136.584433 L74.0888298,106.175825 L122.046809,136.800206 C123.23363,137.545244 124.731592,137.588226 125.959251,136.912469 C127.18691,136.236712 127.950944,134.948628 127.954787,133.548196 L127.954787,3.85309278 C127.96432,2.4355959 127.194101,1.12734063 125.949468,0.446958763 L125.949468,0.446958763 Z M120.288298,126.550979 L57.2595745,86.7562371 L57.2595745,53.8045876 L69.6,45.4973196 L62.581383,40.8736082 L51.3053191,48.5797938 C50.2448454,49.2959842 49.6091413,50.4912432 49.6085106,51.7701546 L49.6085106,88.8831443 C49.6121436,90.2046562 50.2933523,91.4321127 51.4132979,92.1351546 L66.8388298,101.844948 L27.6734043,126.504742 L27.6734043,11.0660825 L64.3707447,35.8954124 L90.7484043,53.7429381 L90.7484043,86.6945876 L78.9478723,94.1387629 L86.1670213,98.7624742 L96.6718085,92.1351546 C97.7917541,91.4321127 98.4729628,90.2046562 98.4765957,88.8831443 L98.4765957,51.7701546 L98.4765957,51.7701546 C98.4709161,51.4896405 98.4347102,51.2105761 98.368617,50.9378866 C98.368617,50.8454124 98.368617,50.7683505 98.2914894,50.6758763 C98.2340503,50.4855994 98.1618455,50.3000884 98.0755319,50.1210309 L97.9367021,49.8590206 C97.8317753,49.6854432 97.7131354,49.5205198 97.5819149,49.3658247 L97.4276596,49.1654639 C97.2290242,48.9507525 97.0064811,48.7594252 96.7643617,48.5952062 L80.937766,37.8065464 L120.288298,11.0660825 L120.288298,126.504742 L120.288298,126.550979 Z" id="Shape" fill="#FFFFFF" sketch:type="MSShapeGroup"></path>
            <path d="M31.9154255,261.285928 C34.1058511,261.285928 37.1755319,261.779124 37.1755319,265.770928 C37.1755319,269.762732 34.0904255,270.255928 31.9154255,270.255928 L30.4962766,270.255928 C30.3677503,270.257941 30.2567107,270.166574 30.2340426,270.040155 L30.2340426,261.517113 C30.249756,261.384563 30.3626884,261.285001 30.4962766,261.285928 L31.9154255,261.285928 L31.9154255,261.285928 Z M32.1930851,268.360206 C32.9563902,268.521999 33.7514202,268.315952 34.3397758,267.803853 C34.9281315,267.291754 35.2413979,266.533149 35.1856383,265.755515 C35.2224387,264.983489 34.9036919,264.23707 34.3204112,263.729388 C33.7371306,263.221706 32.9534307,263.008565 32.1930851,263.150825 L32.1930851,268.344794 L32.1930851,268.360206 Z" id="Shape" fill="#FFFFFF" sketch:type="MSShapeGroup"></path>
            <path d="M49.6702128,269.207887 L47.1404255,269.207887 L46.8164894,270.086392 L46.8164894,270.086392 C46.7708872,270.188357 46.6656089,270.250232 46.5542553,270.240515 L45.0117021,270.240515 C44.929028,270.262383 44.8412272,270.233444 44.787802,270.16672 C44.7343769,270.099995 44.7253935,270.008057 44.7648936,269.932268 L48.112234,261.270515 C48.166114,261.186457 48.2591377,261.13561 48.3590426,261.13561 C48.4589474,261.13561 48.5519711,261.186457 48.6058511,261.270515 L52.0148936,269.993918 C52.0510981,270.066902 52.0430806,270.154037 51.9941647,270.219202 C51.9452487,270.284368 51.8637727,270.316456 51.7835106,270.302165 L50.2409574,270.302165 C50.135085,270.305307 50.037716,270.244503 49.9941489,270.148041 L49.9941489,270.148041 L49.6702128,269.207887 Z M47.6494681,267.666649 L49.1920213,267.666649 L48.7601064,266.341186 C48.6302156,265.937423 48.5271544,265.52553 48.4515957,265.108196 C48.3730707,265.52636 48.2648178,265.9384 48.1276596,266.341186 L47.6494681,267.666649 Z" id="Shape" fill="#FFFFFF" sketch:type="MSShapeGroup"></path>
            <path d="M59.5579787,267.697474 C59.5656361,267.635921 59.5977277,267.580024 59.6470411,267.542346 C59.6963546,267.504668 59.7587531,267.48837 59.8202128,267.497113 L61.2085106,267.497113 C61.3343417,267.48707 61.4474771,267.573511 61.4707447,267.697474 C61.4779276,267.933872 61.5836284,268.156523 61.7623134,268.311642 C61.9409984,268.46676 62.1764179,268.54024 62.4117021,268.51433 C62.6501181,268.531215 62.8851401,268.450395 63.0626532,268.290479 C63.2401662,268.130563 63.3448713,267.905333 63.3526596,267.666649 C63.309509,267.166361 62.9124179,266.769609 62.4117021,266.726495 C61.9390324,266.722054 61.4721086,266.622459 61.0388298,266.43366 C60.0859769,266.016875 59.4774822,265.068434 59.4962766,264.02933 C59.495523,263.275774 59.8033093,262.554706 60.3481356,262.033633 C60.8929619,261.51256 61.6274052,261.236837 62.3808511,261.270515 C63.1083377,261.211173 63.8286384,261.450417 64.3757805,261.93312 C64.9229225,262.415822 65.2497125,263.100349 65.2808511,263.828969 C65.264767,263.959119 65.1495455,264.053927 65.018617,264.044742 L63.6303191,264.044742 C63.5255217,264.020697 63.4460346,263.935169 63.4297872,263.828969 C63.4141522,263.601017 63.3070779,263.389023 63.1328359,263.241044 C62.9585939,263.093065 62.7319412,263.021632 62.5042553,263.042938 C62.2494476,263.024347 61.9991468,263.117411 61.8184907,263.297913 C61.6378347,263.478415 61.5446905,263.728502 61.5632979,263.983093 C61.558924,264.232362 61.6571726,264.472493 61.8350624,264.647318 C62.0129521,264.822142 62.2548795,264.916324 62.5042553,264.907835 C62.9667995,264.913881 63.4233229,265.013496 63.8462766,265.20067 C64.8097172,265.621729 65.4202932,266.585617 65.3888298,267.635825 C65.3998518,268.676517 64.8543596,269.644032 63.9578348,270.173916 C63.06131,270.703799 61.9499561,270.715549 61.0424093,270.20474 C60.1348625,269.693931 59.5690007,268.738167 59.5579787,267.697474 L59.5579787,267.697474 Z" id="Shape" fill="#FFFFFF" sketch:type="MSShapeGroup"></path>
            <path d="M83.3904255,269.993918 C83.3743415,270.124068 83.25912,270.218875 83.1281915,270.209691 L81.7398936,270.209691 C81.6056249,270.219649 81.4856243,270.126395 81.462234,269.993918 L81.462234,265.801753 L79.5803191,269.74732 C79.5208837,269.825778 79.4314828,269.876023 79.3335106,269.886031 L78.0069149,269.886031 C77.911804,269.880127 77.8255034,269.828391 77.7755319,269.74732 L75.7702128,265.663041 L75.7702128,269.993918 C75.7541287,270.124068 75.6389072,270.218875 75.5079787,270.209691 L74.1042553,270.209691 C73.975729,270.211704 73.8646894,270.120337 73.8420213,269.993918 L73.8420213,261.578763 C73.8581053,261.448612 73.9733268,261.353805 74.1042553,261.36299 L75.5234043,261.36299 C75.6194389,261.367307 75.7091352,261.412117 75.7702128,261.486289 L78.7010638,267.543351 L81.4930851,261.486289 C81.5589437,261.409765 81.6543262,261.364917 81.7553191,261.36299 L83.1590426,261.36299 C83.289971,261.353805 83.4051925,261.448612 83.4212766,261.578763 L83.4212766,269.993918 L83.3904255,269.993918 Z" id="Shape" fill="#FFFFFF" sketch:type="MSShapeGroup"></path>
            <path d="M94.2808511,263.181649 L94.2808511,264.93866 L97.4893617,264.93866 C97.5532654,264.929961 97.6179028,264.948306 97.6676876,264.98927 C97.7174725,265.030235 97.7478865,265.090101 97.7515957,265.154433 L97.7515957,266.495309 C97.7478865,266.559642 97.7174725,266.619508 97.6676876,266.660472 C97.6179028,266.701436 97.5532654,266.719781 97.4893617,266.711082 L94.2808511,266.711082 L94.2808511,268.45268 L98.1835106,268.45268 C98.2490601,268.443974 98.3153648,268.461912 98.3675617,268.502475 C98.4197585,268.543038 98.4534812,268.602832 98.4611702,268.668454 L98.4611702,269.993918 C98.43778,270.126395 98.3177793,270.219649 98.1835106,270.209691 L92.7382979,270.209691 C92.6073694,270.218875 92.4921479,270.124068 92.4760638,269.993918 L92.4760638,261.578763 C92.4797731,261.514431 92.5101871,261.454564 92.559972,261.4136 C92.6097568,261.372636 92.6743942,261.354291 92.7382979,261.36299 L98.3069149,261.36299 C98.3724643,261.354283 98.4387691,261.372221 98.4909659,261.412784 C98.5431627,261.453347 98.5768854,261.513141 98.5845745,261.578763 L98.5845745,262.950464 C98.5611842,263.082942 98.4411836,263.176196 98.3069149,263.166237 L94.2808511,263.166237 L94.2808511,263.181649 Z" id="Shape" fill="#FFFFFF" sketch:type="MSShapeGroup"></path>
            <path d="M114.334043,269.993918 C114.317959,270.124068 114.202737,270.218875 114.071809,270.209691 L112.668085,270.209691 C112.582303,270.207835 112.500101,270.174982 112.436702,270.117216 L108.780851,264.784536 L108.780851,269.993918 C108.758183,270.120337 108.647143,270.211704 108.518617,270.209691 L107.130319,270.209691 C107.066415,270.218389 107.001778,270.200045 106.951993,270.15908 C106.902208,270.118116 106.871794,270.05825 106.868085,269.993918 L106.868085,261.563351 C106.866541,261.497131 106.895524,261.433871 106.946698,261.391764 C106.997873,261.349656 107.065569,261.333366 107.130319,261.347577 L108.534043,261.347577 C108.613025,261.346096 108.689826,261.373502 108.75,261.424639 L112.421277,266.818969 L112.421277,261.563351 C112.437361,261.4332 112.552582,261.338393 112.683511,261.347577 L114.071809,261.347577 C114.202737,261.338393 114.317959,261.4332 114.334043,261.563351 L114.334043,269.993918 L114.334043,269.993918 Z" id="Shape" fill="#FFFFFF" sketch:type="MSShapeGroup"></path>
            <path d="M4.13404255,294.854072 L3.48617021,294.854072 L3.48617021,298.183144 C3.46277998,298.315622 3.34277934,298.408876 3.20851064,298.398918 L1.72765957,298.398918 C1.59673111,298.408102 1.48150958,298.313295 1.46542553,298.183144 L1.46542553,289.76799 C1.46913483,289.703657 1.49954882,289.643791 1.54933367,289.602827 C1.59911851,289.561863 1.66375591,289.543518 1.72765957,289.552216 L4.50425532,289.552216 C5.28158103,289.440107 6.0692329,289.671798 6.66175915,290.186856 C7.25428539,290.701914 7.59293039,291.449265 7.5893617,292.233969 C7.66558884,293.281117 7.03521865,294.251059 6.04680851,294.607474 C6.30904255,295.177732 6.61755319,295.840464 6.87978723,296.395309 L7.66648936,298.09067 C7.70269381,298.163654 7.69467634,298.250789 7.64576041,298.315955 C7.59684448,298.381121 7.51536843,298.413209 7.43510638,298.398918 L5.89255319,298.398918 C5.79398431,298.390823 5.70385395,298.340168 5.64574468,298.260206 L4.13404255,294.854072 Z M3.48617021,293.158711 L4.58138298,293.158711 C4.85399779,293.207591 5.13453425,293.137925 5.35252476,292.967213 C5.57051527,292.796502 5.70524535,292.540966 5.72287234,292.264794 C5.6583464,291.699094 5.14771565,291.292316 4.58138298,291.355464 L3.48617021,291.355464 L3.48617021,293.112474 L3.48617021,293.158711 Z" id="Shape" fill="#FFFFFF" sketch:type="MSShapeGroup"></path>
            <path d="M18.0632979,291.340052 L18.0632979,293.112474 L21.2718085,293.112474 C21.3357122,293.103776 21.4003496,293.12212 21.4501344,293.163085 C21.4999193,293.204049 21.5303333,293.263915 21.5340426,293.328247 L21.5340426,294.653711 C21.5303333,294.718044 21.4999193,294.77791 21.4501344,294.818874 C21.4003496,294.859838 21.3357122,294.878183 21.2718085,294.869485 L18.0632979,294.869485 L18.0632979,296.59567 L21.9659574,296.59567 C22.0315069,296.586963 22.0978117,296.604902 22.1500085,296.645465 C22.2022053,296.686028 22.235928,296.745822 22.243617,296.811443 L22.243617,298.167732 C22.2202268,298.30021 22.1002261,298.393464 21.9659574,298.383505 L16.3973404,298.383505 C16.266412,298.39269 16.1511904,298.297882 16.1351064,298.167732 L16.1351064,289.752577 C16.1388157,289.688245 16.1692297,289.628379 16.2190145,289.587415 C16.2687994,289.54645 16.3334368,289.528106 16.3973404,289.536804 L21.9659574,289.536804 C22.0315069,289.528097 22.0978117,289.546036 22.1500085,289.586599 C22.2022053,289.627162 22.235928,289.686956 22.243617,289.752577 L22.243617,291.124278 C22.2202268,291.256756 22.1002261,291.35001 21.9659574,291.340052 L18.0632979,291.340052 L18.0632979,291.340052 Z" id="Shape" fill="#FFFFFF" sketch:type="MSShapeGroup"></path>
            <path d="M30.2803191,295.855876 C30.2879765,295.794323 30.3200681,295.738426 30.3693816,295.700748 C30.418695,295.66307 30.4810935,295.646772 30.5425532,295.655515 L31.9308511,295.655515 C32.0566821,295.645472 32.1698175,295.731913 32.1930851,295.855876 C32.200268,296.092274 32.3059689,296.314925 32.4846538,296.470044 C32.6633388,296.625162 32.8987583,296.698642 33.1340426,296.672732 C33.3724585,296.689617 33.6074805,296.608797 33.7849936,296.448881 C33.9625066,296.288965 34.0672118,296.063735 34.075,295.825052 C34.0318495,295.324763 33.6347583,294.928011 33.1340426,294.884897 C32.6613728,294.880456 32.1944491,294.780861 31.7611702,294.592062 C30.8083174,294.175278 30.1998226,293.226836 30.218617,292.187732 C30.2178634,291.434176 30.5256498,290.713108 31.0704761,290.192035 C31.6153024,289.670962 32.3497456,289.395239 33.1031915,289.428918 C33.8281647,289.386952 34.5392183,289.640288 35.0740485,290.131099 C35.6088788,290.62191 35.9218375,291.308305 35.9414894,292.033608 C35.9254053,292.163759 35.8101838,292.258566 35.6792553,292.249381 L34.2909574,292.249381 C34.1624312,292.251394 34.0513915,292.160028 34.0287234,292.033608 C34.0130884,291.805656 33.9060141,291.593663 33.7317721,291.445683 C33.55753,291.297704 33.3308774,291.226271 33.1031915,291.247577 C32.8483837,291.228986 32.598083,291.322051 32.4174269,291.502552 C32.2367709,291.683054 32.1436267,291.933142 32.162234,292.187732 C32.1578602,292.437001 32.2561088,292.677133 32.4339985,292.851957 C32.6118883,293.026781 32.8538156,293.120964 33.1031915,293.112474 C33.5657357,293.11852 34.0222591,293.218135 34.4452128,293.405309 C35.4086534,293.826369 36.0192294,294.790256 35.987766,295.840464 C35.7829523,297.255141 34.5713186,298.306088 33.1407017,298.309952 C31.7100848,298.313815 30.4927832,297.269427 30.2803191,295.855876 L30.2803191,295.855876 Z" id="Shape" fill="#FFFFFF" sketch:type="MSShapeGroup"></path>
            <path d="M44.4255319,289.752577 C44.441616,289.622427 44.5568375,289.52762 44.687766,289.536804 L46.0760638,289.536804 C46.2069923,289.52762 46.3222138,289.622427 46.3382979,289.752577 L46.3382979,298.167732 C46.3222138,298.297882 46.2069923,298.39269 46.0760638,298.383505 L44.687766,298.383505 C44.5592397,298.385518 44.4482,298.294152 44.4255319,298.167732 L44.4255319,289.752577 L44.4255319,289.752577 Z" id="Shape" fill="#FFFFFF" sketch:type="MSShapeGroup"></path>
            <path d="M56.6425532,289.536804 C58.7867021,289.536804 61.7946809,290.03 61.7946809,293.944742 C61.7946809,297.859485 58.8329787,298.398918 56.6425532,298.398918 L55.2542553,298.398918 C55.125729,298.40093 55.0146894,298.309564 54.9920213,298.183144 L54.9920213,289.76799 C55.0081053,289.637839 55.1233268,289.543032 55.2542553,289.552216 L56.6425532,289.552216 L56.6425532,289.536804 Z M56.9047872,296.611082 C57.670982,296.735048 58.451916,296.502921 59.0256952,295.980657 C59.5994744,295.458393 59.9033813,294.703079 59.8510638,293.92933 C59.9536592,293.188301 59.6982533,292.442591 59.1627757,291.91973 C58.6272981,291.396868 57.8752772,291.158888 57.1361702,291.278402 L56.9047872,291.278402 L56.9047872,296.59567 L56.9047872,296.611082 Z" id="Shape" fill="#FFFFFF" sketch:type="MSShapeGroup"></path>
            <path d="M72.2994681,291.340052 L72.2994681,293.112474 L75.5079787,293.112474 C75.5718824,293.103776 75.6365198,293.12212 75.6863046,293.163085 C75.7360895,293.204049 75.7665035,293.263915 75.7702128,293.328247 L75.7702128,294.653711 C75.7665035,294.718044 75.7360895,294.77791 75.6863046,294.818874 C75.6365198,294.859838 75.5718824,294.878183 75.5079787,294.869485 L72.2994681,294.869485 L72.2994681,296.59567 L76.2021277,296.59567 C76.2676771,296.586963 76.3339819,296.604902 76.3861787,296.645465 C76.4383755,296.686028 76.4720982,296.745822 76.4797872,296.811443 L76.4797872,298.167732 C76.456397,298.30021 76.3363964,298.393464 76.2021277,298.383505 L70.6335106,298.383505 C70.5025822,298.39269 70.3873606,298.297882 70.3712766,298.167732 L70.3712766,289.752577 C70.3749859,289.688245 70.4053999,289.628379 70.4551847,289.587415 C70.5049696,289.54645 70.569607,289.528106 70.6335106,289.536804 L76.2021277,289.536804 C76.2676771,289.528097 76.3339819,289.546036 76.3861787,289.586599 C76.4383755,289.627162 76.4720982,289.686956 76.4797872,289.752577 L76.4797872,291.124278 C76.456397,291.256756 76.3363964,291.35001 76.2021277,291.340052 L72.2994681,291.340052 L72.2994681,291.340052 Z" id="Shape" fill="#FFFFFF" sketch:type="MSShapeGroup"></path>
            <path d="M92.3218085,298.167732 C92.3057245,298.297882 92.1905029,298.39269 92.0595745,298.383505 L90.6558511,298.383505 C90.5700693,298.38165 90.4878668,298.348797 90.4244681,298.291031 L86.768617,292.958351 L86.768617,298.167732 C86.7459489,298.294152 86.6349093,298.385518 86.506383,298.383505 L85.1180851,298.383505 C85.0541814,298.392204 84.989544,298.373859 84.9397592,298.332895 C84.8899744,298.29193 84.8595604,298.232064 84.8558511,298.167732 L84.8558511,289.737165 C84.8543072,289.670945 84.8832896,289.607686 84.9344642,289.565578 C84.9856388,289.52347 85.0533347,289.50718 85.1180851,289.521392 L86.5680851,289.521392 C86.6470672,289.51991 86.723869,289.547316 86.7840426,289.598454 L90.4553191,294.992784 L90.4553191,289.737165 C90.4714032,289.607015 90.5866247,289.512207 90.7175532,289.521392 L92.1058511,289.521392 C92.2367795,289.512207 92.3520011,289.607015 92.3680851,289.737165 L92.3680851,298.167732 L92.3218085,298.167732 Z" id="Shape" fill="#FFFFFF" sketch:type="MSShapeGroup"></path>
            <path d="M105.927128,291.108866 C105.91947,291.170419 105.887379,291.226316 105.838065,291.263994 C105.788752,291.301672 105.726353,291.317971 105.664894,291.309227 L104.12234,291.309227 L104.12234,298.167732 C104.118631,298.232064 104.088217,298.29193 104.038432,298.332895 C103.988647,298.373859 103.92401,298.392204 103.860106,298.383505 L102.456383,298.383505 C102.392479,298.392204 102.327842,298.373859 102.278057,298.332895 C102.228272,298.29193 102.197858,298.232064 102.194149,298.167732 L102.194149,291.309227 L100.651596,291.309227 C100.590136,291.317971 100.527738,291.301672 100.478424,291.263994 C100.429111,291.226316 100.397019,291.170419 100.389362,291.108866 L100.389362,289.829639 C100.405075,289.697088 100.518008,289.597527 100.651596,289.598454 L105.541489,289.598454 C105.606978,289.594236 105.671452,289.616251 105.72066,289.659632 C105.769868,289.703014 105.799758,289.76419 105.803723,289.829639 L105.803723,291.108866 L105.927128,291.108866 Z" id="Shape" fill="#FFFFFF" sketch:type="MSShapeGroup"></path>
            <path d="M113.855851,289.752577 C113.871935,289.622427 113.987157,289.52762 114.118085,289.536804 L115.521809,289.536804 C115.652737,289.52762 115.767959,289.622427 115.784043,289.752577 L115.784043,298.167732 C115.767959,298.297882 115.652737,298.39269 115.521809,298.383505 L114.118085,298.383505 C113.989559,298.385518 113.878519,298.294152 113.855851,298.167732 L113.855851,289.752577 L113.855851,289.752577 Z" id="Shape" fill="#FFFFFF" sketch:type="MSShapeGroup"></path>
            <path d="M128.432979,297.366289 L125.903191,297.366289 L125.579255,298.244794 L125.579255,298.244794 C125.533653,298.346759 125.428375,298.408635 125.317021,298.398918 L123.774468,298.398918 C123.691794,298.420785 123.603993,298.391846 123.550568,298.325122 C123.497143,298.258397 123.488159,298.166459 123.52766,298.09067 L126.875,289.428918 C126.92888,289.344859 127.021904,289.294012 127.121809,289.294012 C127.221713,289.294012 127.314737,289.344859 127.368617,289.428918 L130.715957,298.09067 C130.752162,298.163654 130.744144,298.250789 130.695228,298.315955 C130.646313,298.381121 130.564837,298.413209 130.484574,298.398918 L128.942021,298.398918 C128.836149,298.402059 128.73878,298.341256 128.695213,298.244794 L128.695213,298.244794 L128.432979,297.366289 Z M126.412234,295.825052 L127.954787,295.825052 L127.522872,294.499588 C127.392982,294.095825 127.28992,293.683932 127.214362,293.266598 C127.134898,293.68455 127.026662,294.096525 126.890426,294.499588 L126.412234,295.825052 Z" id="Shape" fill="#FFFFFF" sketch:type="MSShapeGroup"></path>
            <path d="M143.364894,296.564845 C143.495822,296.555661 143.611044,296.650468 143.627128,296.780619 L143.627128,298.167732 C143.60446,298.294152 143.49342,298.385518 143.364894,298.383505 L138.876064,298.383505 C138.745135,298.39269 138.629914,298.297882 138.61383,298.167732 L138.61383,289.752577 C138.629914,289.622427 138.745135,289.52762 138.876064,289.536804 L140.279787,289.536804 C140.410716,289.52762 140.525937,289.622427 140.542021,289.752577 L140.542021,296.564845 L143.364894,296.564845 L143.364894,296.564845 Z" id="Shape" fill="#FFFFFF" sketch:type="MSShapeGroup"></path>
            <path d="M93.756383,226.06866 L58.1234043,226.06866" id="Shape" stroke="#FFFFFF" stroke-width="5" sketch:type="MSShapeGroup"></path>
            <path d="M29.6478723,164.634948 C35.4478723,164.634948 43.5308511,165.960412 43.5308511,176.502474 C43.5308511,186.643814 35.4941489,188.37 29.6478723,188.37 L25.8840426,188.37 C25.5360487,188.390173 25.2293386,188.143682 25.1744681,187.799742 L25.1744681,165.189794 C25.207132,164.82736 25.520278,164.555292 25.8840426,164.573299 L29.6478723,164.573299 L29.6478723,164.634948 Z M30.3882979,183.391804 C33.1340426,183.499691 38.3324468,183.052732 38.3324468,176.502474 C38.3324468,171.478041 34.9079787,169.551495 30.3882979,169.613144 L30.3882979,183.376392 L30.3882979,183.391804 Z" id="Shape" fill="#FFFFFF" sketch:type="MSShapeGroup"></path>
            <path d="M87.8792553,187.799742 C87.816758,188.152283 87.4959576,188.399356 87.1388298,188.37 L83.4058511,188.37 C83.0487233,188.399356 82.7279229,188.152283 82.6654255,187.799742 L82.6654255,176.810722 C80.968617,180.232268 79.2409574,183.653814 77.5441489,187.090773 C77.394511,187.289625 77.1731528,187.422327 76.9271277,187.46067 L73.3638298,187.46067 C73.1048845,187.43556 72.8690741,187.300926 72.7159574,187.090773 L72.7159574,187.090773 L67.1781915,176.41 L67.1781915,187.768918 C67.123321,188.112857 66.8166108,188.359348 66.468617,188.339175 L62.6739362,188.339175 C62.5067518,188.360927 62.3381042,188.311586 62.2090674,188.203171 C62.0800306,188.094755 62.0024472,187.937214 61.9952128,187.768918 L61.9952128,165.189794 C61.9892131,165.01342 62.061091,164.843322 62.1917842,164.724611 C62.3224775,164.605901 62.4987802,164.550572 62.6739362,164.573299 L66.5148936,164.573299 C66.7726435,164.602118 67.0070588,164.735955 67.162766,164.943196 L75.1069149,181.079948 L82.65,164.943196 C82.8153052,164.731417 83.0610186,164.597506 83.3287234,164.573299 L87.1234043,164.573299 C87.4960487,164.546209 87.8233005,164.818686 87.8638298,165.189794 L87.8638298,187.768918 L87.8792553,187.799742 Z" id="Shape" fill="#FFFFFF" sketch:type="MSShapeGroup"></path>
            <path d="M114.118085,178.983866 L112.390426,178.983866 L112.390426,187.799742 C112.327928,188.152283 112.007128,188.399356 111.65,188.37 L107.947872,188.37 C107.606472,188.388636 107.309343,188.138992 107.269149,187.799742 L107.269149,165.482629 C107.280806,165.316023 107.359619,165.161271 107.487553,165.053781 C107.615488,164.946292 107.781596,164.895263 107.947872,164.912371 L115.305851,164.912371 C116.694149,164.912371 123.450532,164.912371 123.450532,172.002062 C123.667998,174.798207 121.969149,177.388641 119.316489,178.305722 C120.026064,179.846959 120.859043,181.557732 121.52234,183.052732 L123.589362,187.568557 C123.687308,187.762603 123.666351,187.995404 123.53532,188.168872 C123.404289,188.342341 123.185966,188.426314 122.97234,188.385412 L118.961702,188.385412 C118.702134,188.362272 118.465564,188.227205 118.31383,188.015515 L114.118085,178.983866 Z M112.390426,174.437216 L115.305851,174.437216 C116.154255,174.437216 118.390957,174.26768 118.390957,172.063711 C118.390957,169.859742 115.984574,169.659381 115.305851,169.659381 L112.390426,169.659381 L112.390426,174.437216 L112.390426,174.437216 Z" id="Shape" fill="#FFFFFF" sketch:type="MSShapeGroup"></path>
        </g>
    </g>
</svg>